<?xml version="1.0" encoding="utf-8"?>
<!-- Generator: Adobe Illustrator 28.2.0, SVG Export Plug-In . SVG Version: 6.00 Build 0)  -->
<svg version="1.1" id="레이어_1" xmlns="http://www.w3.org/2000/svg" xmlns:xlink="http://www.w3.org/1999/xlink" x="0px"
	 y="0px" viewBox="0 0 111 30" style="enable-background:new 0 0 111 30;" xml:space="preserve">
<g>
	<path d="M105.06,14.28L111,30c-1.75-0.25-3.5-0.56-5.28-0.84l-3.34-8.69l-3.44,7.97c-1.69-0.28-3.34-0.38-5.03-0.59l6.03-13.75
		L94.47,0h5.06l3.06,7.87L105.87,0H111L105.06,14.28z M90.47,0h-4.59v27.25c1.5,0.09,3.06,0.16,4.59,0.34V0z M81.91,26.94
		c-4.19-0.28-8.37-0.53-12.66-0.63V0h4.69v21.87c2.69,0.06,5.38,0.28,7.97,0.41V26.94z M64.25,10.66v4.69h-6.41V26h-4.63V0h13.12
		v4.69h-8.5v5.97H64.25z M43.34,4.69v21.56c-1.56,0-3.16,0-4.69,0.06V4.69h-4.84V0h14.41v4.69H43.34z M4.78,12.97v16.37
		C3.09,29.53,1.59,29.75,0,30V0h4.47l6.09,17.03V0h4.69v28.06c-1.66,0.28-3.34,0.38-5.13,0.63L4.78,12.97z M23.46,27.59
		c1.53-0.19,3.09-0.25,4.59-0.34V0h-4.59V27.59z"/>
</g>
</svg>
